# xmcd
#
# Track frame offsets:
#	150
#	24062
#	44760
#	68662
#	73165
#	94377
#
# Disc length: 1551 seconds
#
# Revision: 1
# Processed by: cddbd v1.5.1PL0 Copyright (c) Steve Scherf et al.
# Submitted via: CDex 1.50Beta5
#
DISCID=4f060d06
DTITLE=MSC - 宿ノ斜塔
DYEAR=1900
DGENRE=Hop
TTITLE0=宿ノ斜塔
TTITLE1=反抗声明
TTITLE2=あれよという間に Feat..志人 心 ナノルナモナイ
TTITLE3=北ノ証人
TTITLE4=宿ノ社交
TTITLE5=天地無用
EXTD=
EXTT0=
EXTT1=
EXTT2=
EXTT3=
EXTT4=
EXTT5=
PLAYORDER=
